<?xml version="1.0" encoding="UTF-8"?>
<svg version="1.1" xmlns="http://www.w3.org/2000/svg" width="354" height="354">
<path d="M0 0 C116.82 0 233.64 0 354 0 C354 116.82 354 233.64 354 354 C237.18 354 120.36 354 0 354 C0 237.18 0 120.36 0 0 Z " fill="#FEFEFE" transform="translate(0,0)"/>
<path d="M0 0 C1.24007812 0.00572021 2.48015625 0.01144043 3.7578125 0.01733398 C22.04228931 0.37347837 38.0669068 7.79904468 51.3125 20.5 C61.76096243 32.30607515 69.3428338 46.58865913 70.3125 62.5 C70.38984375 63.74007812 70.4671875 64.98015625 70.546875 66.2578125 C71.36719554 85.87176872 64.47645528 102.94165808 51.3125 117.5 C39.06271444 130.50862183 22.49917265 138.11163764 4.6640625 138.8359375 C2.75539018 138.86532695 0.84639611 138.87806559 -1.0625 138.875 C-2.064021 138.87411377 -3.06554199 138.87322754 -4.09741211 138.87231445 C-13.19651821 138.72720607 -20.68833499 137.12456163 -28.8125 132.859375 C-35.58214194 129.65851169 -44.00339763 133.56282702 -50.84375 135.4453125 C-54.36775771 136.41226584 -57.89647669 137.34755474 -61.4375 138.25 C-62.38109375 138.49234375 -63.3246875 138.7346875 -64.296875 138.984375 C-66.6875 139.5 -66.6875 139.5 -69.6875 139.5 C-68.01963331 130.94370829 -65.97858999 122.65960192 -63.3137207 114.36352539 C-60.91876606 106.66355833 -61.60361917 101.85017412 -64.5625 94.625 C-71.47260256 77.46546301 -72.13625131 59.91302901 -64.89013672 42.59423828 C-56.40608292 23.57593771 -40.97145912 10.16470421 -21.5715332 2.68408203 C-14.39971715 0.23096924 -7.53561481 -0.04022389 0 0 Z " fill="#FDFEFD" transform="translate(176.6875,106.5)"/>
<path d="M0 0 C1.24007812 0.00572021 2.48015625 0.01144043 3.7578125 0.01733398 C22.04228931 0.37347837 38.0669068 7.79904468 51.3125 20.5 C61.76096243 32.30607515 69.3428338 46.58865913 70.3125 62.5 C70.38984375 63.74007812 70.4671875 64.98015625 70.546875 66.2578125 C71.36719554 85.87176872 64.47645528 102.94165808 51.3125 117.5 C39.06271444 130.50862183 22.49917265 138.11163764 4.6640625 138.8359375 C2.75539018 138.86532695 0.84639611 138.87806559 -1.0625 138.875 C-2.064021 138.87411377 -3.06554199 138.87322754 -4.09741211 138.87231445 C-13.19651821 138.72720607 -20.68833499 137.12456163 -28.8125 132.859375 C-35.58214194 129.65851169 -44.00339763 133.56282702 -50.84375 135.4453125 C-54.36775771 136.41226584 -57.89647669 137.34755474 -61.4375 138.25 C-62.38109375 138.49234375 -63.3246875 138.7346875 -64.296875 138.984375 C-66.6875 139.5 -66.6875 139.5 -69.6875 139.5 C-68.01963331 130.94370829 -65.97858999 122.65960192 -63.3137207 114.36352539 C-60.91876606 106.66355833 -61.60361917 101.85017412 -64.5625 94.625 C-71.47260256 77.46546301 -72.13625131 59.91302901 -64.89013672 42.59423828 C-56.40608292 23.57593771 -40.97145912 10.16470421 -21.5715332 2.68408203 C-14.39971715 0.23096924 -7.53561481 -0.04022389 0 0 Z M-45.8203125 33.82421875 C-55.86439954 45.93364837 -59.11381067 60.10700414 -57.6875 75.5 C-56.55124642 83.05081145 -54.61256541 90.21187161 -50.8125 96.875 C-48.39919393 101.31666761 -48.53367105 104.01520357 -49.8671875 108.828125 C-50.13789062 109.70984375 -50.40859375 110.5915625 -50.6875 111.5 C-51.23651512 113.70651791 -51.77813057 115.91488955 -52.3125 118.125 C-52.76846796 119.9172701 -53.22594354 121.70916094 -53.6875 123.5 C-51.893125 123.0978125 -51.893125 123.0978125 -50.0625 122.6875 C-48.83080078 122.43033203 -48.83080078 122.43033203 -47.57421875 122.16796875 C-45.49453697 121.68674333 -43.4350293 121.11519583 -41.39453125 120.48828125 C-34.68500446 118.60425208 -30.57635303 117.91333484 -24.25 121.1875 C-23.34378906 121.74824219 -22.43757813 122.30898437 -21.50390625 122.88671875 C-11.02652849 128.88832349 5.58727872 128.47284373 17.0546875 125.4375 C25.42800189 122.71563645 32.63750596 118.20858076 39.3125 112.5 C40.27542969 111.70335937 40.27542969 111.70335937 41.2578125 110.890625 C52.33850405 100.85340665 57.29621674 87.37539899 58.65234375 72.86328125 C59.1040368 56.72880534 54.57892867 42.71395861 44.25 30.25 C32.87197251 18.44985344 18.01820017 11.63059491 1.625 11.0144043 C-18.21449417 10.88376477 -32.76934533 19.60201093 -45.8203125 33.82421875 Z " fill="#29D369" transform="translate(176.6875,106.5)"/>
<path d="M0 0 C2.47265625 0.04296875 2.47265625 0.04296875 4.625 0.375 C6.4375 2.3125 6.4375 2.3125 7.625 5.375 C7.97304687 6.07625 8.32109375 6.7775 8.6796875 7.5 C10.80176748 11.83197016 12.51674099 15.47042456 11.625 20.375 C10.944375 21.2 10.26375 22.025 9.5625 22.875 C7.30975729 25.22345691 7.30975729 25.22345691 7.7578125 28.21875 C9.78261896 35.58831585 16.53265397 40.98880894 22.8125 44.9375 C27.93928444 47.9017204 27.93928444 47.9017204 33.625 48.375 C36.29806244 45.95236704 38.48334785 43.27066578 40.625 40.375 C44.95804076 41.01965202 48.49172065 42.56425122 52.4375 44.4375 C53.59894531 44.98535156 54.76039063 45.53320312 55.95703125 46.09765625 C57.27767578 46.72994141 57.27767578 46.72994141 58.625 47.375 C58.67947047 48.79123216 58.71800508 50.20808191 58.75 51.625 C58.77320313 52.41390625 58.79640625 53.2028125 58.8203125 54.015625 C58.60214539 56.65108367 58.0441843 58.15428305 56.625 60.375 C49.73972198 65.5023347 44.04608412 66.33767665 35.625 65.375 C17.15599173 60.14500915 2.72727801 47.50648902 -7.375 31.375 C-7.80941406 30.74335938 -8.24382812 30.11171875 -8.69140625 29.4609375 C-12.43208214 23.33509196 -12.48063066 16.32352557 -11.375 9.375 C-9.79799729 6.20695599 -7.91806717 3.81944407 -5.375 1.375 C-3.7961316 -0.2038684 -2.18207663 0.09180258 0 0 Z " fill="#28D368" transform="translate(153.375,143.625)"/>
</svg>
