<?xml version="1.0" encoding="UTF-8"?>
<svg version="1.1" xmlns="http://www.w3.org/2000/svg" width="354" height="354">
<path d="M0 0 C116.82 0 233.64 0 354 0 C354 116.82 354 233.64 354 354 C237.18 354 120.36 354 0 354 C0 237.18 0 120.36 0 0 Z " fill="#FEFEFE" transform="translate(0,0)"/>
<path d="M0 0 C1.95715387 -0.00015523 3.91430804 -0.00164815 5.87145996 -0.00440979 C9.95985619 -0.00578917 14.04789964 0.00668682 18.13623047 0.02954102 C23.35452793 0.057924 28.57223997 0.05518199 33.79058075 0.0424509 C37.827992 0.03546785 41.86526996 0.04331293 45.90266418 0.05570793 C47.82582588 0.06019693 49.74900202 0.06058176 51.67216492 0.05664253 C77.01464954 0.0290255 77.01464954 0.0290255 86.90625 9.49609375 C93.1942282 16.62246904 95.20541261 22.31447806 95.21264648 31.7175293 C95.22097 32.63853928 95.22929352 33.55954926 95.23786926 34.50846863 C95.2619413 37.54995978 95.2707391 40.59123621 95.27734375 43.6328125 C95.28631395 45.75405439 95.29543586 47.87529564 95.30470276 49.99653625 C95.32118895 54.44423966 95.3288919 58.89186784 95.33178711 63.33959961 C95.33716284 69.02113924 95.37481157 74.70196517 95.42053127 80.38330364 C95.45037238 84.76640866 95.45751225 89.14934353 95.45851326 93.53254128 C95.46270345 95.62599764 95.47508914 97.71945508 95.49603081 99.8128109 C95.61510973 112.748419 95.5559919 122.30342298 86.59375 132.37109375 C79.31004125 139.11409049 71.81505941 140.64184904 62.1496582 140.6730957 C61.26620224 140.6796669 60.38274628 140.6862381 59.47251892 140.69300842 C56.55068878 140.71270751 53.62890999 140.72439725 50.70703125 140.734375 C49.20689012 140.74048829 49.20689012 140.74048829 47.6764431 140.74672508 C42.38170962 140.7675726 37.08700195 140.78187934 31.79223633 140.79125977 C26.33601151 140.80231399 20.88019564 140.83670651 15.42411518 140.87643147 C11.21778122 140.90263472 7.01154412 140.91095497 2.80513573 140.91454124 C0.79459055 140.91939855 -1.21595055 140.93098799 -3.22641563 140.94957924 C-6.04799753 140.9740468 -8.86852903 140.97299164 -11.69018555 140.96606445 C-12.92262497 140.98527954 -12.92262497 140.98527954 -14.17996216 141.00488281 C-22.35545498 140.93216653 -29.78906683 137.67994436 -36.09375 132.49609375 C-43.57907664 122.94646839 -45.23677509 113.97894877 -45.25488281 102.12744141 C-45.25984772 101.33278976 -45.26481262 100.53813812 -45.26992798 99.71940613 C-45.28441535 97.11631372 -45.29132791 94.51328218 -45.296875 91.91015625 C-45.29970238 91.01427166 -45.30252975 90.11838707 -45.30544281 89.19535446 C-45.32037854 84.45705628 -45.32964427 79.71878812 -45.33398438 74.98046875 C-45.33947007 70.10968312 -45.36351636 65.23917684 -45.39195633 60.36847878 C-45.410656 56.60046604 -45.41579213 52.83251977 -45.41732025 49.06446457 C-45.42032923 47.26967207 -45.4282978 45.47488024 -45.44150543 43.68013382 C-45.53097301 30.59205629 -45.35377419 19.66619402 -36.09375 9.49609375 C-25.77997222 -0.81768403 -13.59419774 -0.08805063 0 0 Z " fill="#FEF9FB" transform="translate(155.09375,112.50390625)"/>
<path d="M0 0 C1.95715387 -0.00015523 3.91430804 -0.00164815 5.87145996 -0.00440979 C9.95985619 -0.00578917 14.04789964 0.00668682 18.13623047 0.02954102 C23.35452793 0.057924 28.57223997 0.05518199 33.79058075 0.0424509 C37.827992 0.03546785 41.86526996 0.04331293 45.90266418 0.05570793 C47.82582588 0.06019693 49.74900202 0.06058176 51.67216492 0.05664253 C77.01464954 0.0290255 77.01464954 0.0290255 86.90625 9.49609375 C93.1942282 16.62246904 95.20541261 22.31447806 95.21264648 31.7175293 C95.22097 32.63853928 95.22929352 33.55954926 95.23786926 34.50846863 C95.2619413 37.54995978 95.2707391 40.59123621 95.27734375 43.6328125 C95.28631395 45.75405439 95.29543586 47.87529564 95.30470276 49.99653625 C95.32118895 54.44423966 95.3288919 58.89186784 95.33178711 63.33959961 C95.33716284 69.02113924 95.37481157 74.70196517 95.42053127 80.38330364 C95.45037238 84.76640866 95.45751225 89.14934353 95.45851326 93.53254128 C95.46270345 95.62599764 95.47508914 97.71945508 95.49603081 99.8128109 C95.61510973 112.748419 95.5559919 122.30342298 86.59375 132.37109375 C79.31004125 139.11409049 71.81505941 140.64184904 62.1496582 140.6730957 C61.26620224 140.6796669 60.38274628 140.6862381 59.47251892 140.69300842 C56.55068878 140.71270751 53.62890999 140.72439725 50.70703125 140.734375 C49.20689012 140.74048829 49.20689012 140.74048829 47.6764431 140.74672508 C42.38170962 140.7675726 37.08700195 140.78187934 31.79223633 140.79125977 C26.33601151 140.80231399 20.88019564 140.83670651 15.42411518 140.87643147 C11.21778122 140.90263472 7.01154412 140.91095497 2.80513573 140.91454124 C0.79459055 140.91939855 -1.21595055 140.93098799 -3.22641563 140.94957924 C-6.04799753 140.9740468 -8.86852903 140.97299164 -11.69018555 140.96606445 C-12.92262497 140.98527954 -12.92262497 140.98527954 -14.17996216 141.00488281 C-22.35545498 140.93216653 -29.78906683 137.67994436 -36.09375 132.49609375 C-43.57907664 122.94646839 -45.23677509 113.97894877 -45.25488281 102.12744141 C-45.25984772 101.33278976 -45.26481262 100.53813812 -45.26992798 99.71940613 C-45.28441535 97.11631372 -45.29132791 94.51328218 -45.296875 91.91015625 C-45.29970238 91.01427166 -45.30252975 90.11838707 -45.30544281 89.19535446 C-45.32037854 84.45705628 -45.32964427 79.71878812 -45.33398438 74.98046875 C-45.33947007 70.10968312 -45.36351636 65.23917684 -45.39195633 60.36847878 C-45.410656 56.60046604 -45.41579213 52.83251977 -45.41732025 49.06446457 C-45.42032923 47.26967207 -45.4282978 45.47488024 -45.44150543 43.68013382 C-45.53097301 30.59205629 -45.35377419 19.66619402 -36.09375 9.49609375 C-25.77997222 -0.81768403 -13.59419774 -0.08805063 0 0 Z M-20.09375 29.49609375 C-20.795 30.21796875 -21.49625 30.93984375 -22.21875 31.68359375 C-26.81041669 38.57109378 -27.53912701 46.37247638 -27.421875 54.45703125 C-27.41906525 55.82476181 -27.41906525 55.82476181 -27.41619873 57.22012329 C-27.40952594 59.1344167 -27.39570797 61.04869759 -27.375 62.96289062 C-27.34390248 65.85690359 -27.33402143 68.75036772 -27.328125 71.64453125 C-27.98993829 93.45857493 -27.98993829 93.45857493 -19.65625 112.99609375 C-17.15278217 115.43850139 -15.42514272 116.54426726 -12.09375 117.49609375 C-12.09375 118.15609375 -12.09375 118.81609375 -12.09375 119.49609375 C-4.51685437 123.04776358 3.86169939 122.65493743 12.0546875 122.6640625 C13.10725739 122.6673909 14.15982727 122.6707193 15.24429321 122.67414856 C17.46136033 122.67919001 19.67843497 122.68155775 21.89550781 122.68139648 C25.26380054 122.68358243 28.6317651 122.70176664 32 122.72070312 C34.16406139 122.72363785 36.32812432 122.72562212 38.4921875 122.7265625 C39.4872934 122.73374802 40.48239929 122.74093353 41.50765991 122.74833679 C51.8646009 122.71495128 60.98638541 121.64365797 68.90625 114.49609375 C76.98418755 104.67110761 78.06002968 95.13539281 78.07421875 82.84765625 C78.07754715 81.83569183 78.08087555 80.82372742 78.08430481 79.78109741 C78.08934967 77.64801485 78.09171389 75.51492446 78.09155273 73.38183594 C78.09373824 70.13853818 78.11191753 66.89558141 78.13085938 63.65234375 C78.1337941 61.57161574 78.13577837 59.49088612 78.13671875 57.41015625 C78.14749702 55.97067123 78.14749702 55.97067123 78.15849304 54.50210571 C78.12426979 44.29394322 76.4300577 35.61982047 69.90625 27.49609375 C67.08346119 25.12338565 64.1489871 23.2412759 60.90625 21.49609375 C60.27976562 21.13515625 59.65328125 20.77421875 59.0078125 20.40234375 C49.90923117 16.47879195 37.73652387 18.15392018 28.04150391 18.09106445 C25.54526922 18.06950886 23.04910961 18.03543564 20.55322266 17.98852539 C16.92837234 17.92113205 13.30507806 17.89400002 9.6796875 17.875 C8.57926117 17.84716934 7.47883484 17.81933868 6.34506226 17.79066467 C-3.90868138 17.81748196 -13.44212877 21.38943037 -20.09375 29.49609375 Z " fill="#F1357A" transform="translate(155.09375,112.50390625)"/>
<path d="M0 0 C1.1697084 -0.0004985 2.33941681 -0.00099701 3.54457092 -0.00151062 C6.01142073 0.00082363 8.4782732 0.01051368 10.94506836 0.02709961 C14.70643586 0.05067956 18.46709299 0.04765647 22.22851562 0.04101562 C24.63151461 0.04659349 27.03451064 0.05370405 29.4375 0.0625 C31.11440163 0.06113289 31.11440163 0.06113289 32.82518005 0.05973816 C43.11689169 0.15246776 51.52307606 1.8420407 59.78515625 8.36328125 C67.71298569 17.628728 68.93957894 27.12034731 68.953125 38.9140625 C68.9581176 40.43413155 68.9581176 40.43413155 68.96321106 41.98490906 C68.96826132 44.12396798 68.97061997 46.26303473 68.97045898 48.40209961 C68.97264181 51.65426796 68.99080792 54.90609486 69.00976562 58.15820312 C69.01270077 60.24348843 69.01468476 62.32877534 69.015625 64.4140625 C69.02281052 65.37685623 69.02999603 66.33964996 69.03739929 67.33161926 C69.00294016 77.64629118 67.25713575 88.27762181 60.11328125 96.22265625 C50.93752068 104.42399977 41.28624218 104.51968932 29.56640625 104.49609375 C27.9804364 104.49752884 27.9804364 104.49752884 26.36242676 104.49899292 C24.13696228 104.49967049 21.91149578 104.49784585 19.68603516 104.49365234 C16.29585292 104.48829814 12.90580316 104.49361178 9.515625 104.5 C7.34505179 104.49933914 5.17447867 104.49805783 3.00390625 104.49609375 C1.99847778 104.49811798 0.99304932 104.50014221 -0.04284668 104.50222778 C-14.62112102 104.45408878 -14.62112102 104.45408878 -21.21484375 101.36328125 C-21.21484375 100.70328125 -21.21484375 100.04328125 -21.21484375 99.36328125 C-21.91609375 99.19828125 -22.61734375 99.03328125 -23.33984375 98.86328125 C-29.05949882 95.87911339 -32.72376102 89.75505733 -34.63623047 83.67871094 C-37.27121752 73.13431551 -36.43306795 61.4390714 -36.45507812 50.63574219 C-36.46484691 47.73734501 -36.49599031 44.83963988 -36.52734375 41.94140625 C-36.53387048 40.06901455 -36.53912225 38.19661788 -36.54296875 36.32421875 C-36.55531555 35.47290375 -36.56766235 34.62158875 -36.5803833 33.74447632 C-36.54506174 24.07691898 -34.14594015 15.35681996 -27.21484375 8.36328125 C-24.67996266 6.38483747 -22.09162669 4.79408894 -19.21484375 3.36328125 C-18.26593262 2.85297363 -17.31702148 2.34266602 -16.33935547 1.81689453 C-11.07481605 -0.41149746 -5.62635666 -0.04626718 0 0 Z M-23.05859375 18.484375 C-25.53181199 22.50335464 -26.4667675 26.02915106 -26.52124023 30.72924805 C-26.53722763 31.77771408 -26.55321503 32.82618011 -26.56968689 33.90641785 C-26.57504959 35.03042496 -26.58041229 36.15443207 -26.5859375 37.3125 C-26.59496597 38.48029495 -26.60399445 39.6480899 -26.61329651 40.85127258 C-26.62779335 43.32163941 -26.63668433 45.79204458 -26.64038086 48.26245117 C-26.65224667 52.02003732 -26.70141616 55.77596481 -26.75195312 59.53320312 C-26.76142147 61.93879411 -26.76865453 64.34439514 -26.7734375 66.75 C-26.79296982 67.86388596 -26.81250214 68.97777191 -26.83262634 70.12541199 C-26.79066053 77.47373988 -25.53912299 83.29117171 -21.21484375 89.36328125 C-18.91995473 91.29381581 -17.03613124 92.15415804 -14.21484375 93.36328125 C-13.41886276 93.71855392 -12.62288177 94.0738266 -11.80278015 94.43986511 C-9.12300852 95.3960495 -7.1399484 95.62220344 -4.30786133 95.63793945 C-3.35949905 95.64747147 -2.41113678 95.65700348 -1.43403625 95.66682434 C-0.41939804 95.66591293 0.59524017 95.66500153 1.640625 95.6640625 C2.69743973 95.66834763 3.75425446 95.67263275 4.84309387 95.67704773 C7.07808721 95.68278448 9.31309922 95.68329613 11.5480957 95.67895508 C14.94320164 95.67580855 18.33742444 95.69921654 21.73242188 95.72460938 C23.91015516 95.72688397 26.08789077 95.72758512 28.265625 95.7265625 C29.27014206 95.73577225 30.27465912 95.74498199 31.30961609 95.75447083 C38.97250657 95.70496414 46.86039478 94.82872222 53.22265625 90.17578125 C59.35028447 83.45033565 59.23163407 75.91551333 59.18359375 67.26953125 C59.18646393 66.12343384 59.18933411 64.97733643 59.19229126 63.79650879 C59.19432514 61.38272607 59.18884283 58.96892661 59.17626953 56.55517578 C59.16020717 52.87494817 59.17614226 49.19581873 59.1953125 45.515625 C59.19332995 43.16275801 59.18948603 40.8098917 59.18359375 38.45703125 C59.18966644 37.36410767 59.19573914 36.27118408 59.20199585 35.1451416 C59.13292965 27.58831428 58.33976054 21.74437516 53.66015625 15.55078125 C45.4774204 9.32478658 34.94843805 9.20877556 25.046875 9.125 C24.12606644 9.11692825 23.20525787 9.10885651 22.25654602 9.10054016 C20.31598759 9.08676947 18.37540566 9.07601627 16.43481445 9.06811523 C14.46534036 9.05659025 12.49589762 9.03613028 10.52661133 9.0065918 C7.65815337 8.96365009 4.79061556 8.94771216 1.921875 8.9375 C1.05487473 8.91999191 0.18787445 8.90248383 -0.70539856 8.88444519 C-9.66663798 8.91574711 -17.35637193 11.3400215 -23.05859375 18.484375 Z " fill="#FEF7FA" transform="translate(164.21484375,130.63671875)"/>
<path d="M0 0 C0.91323532 -0.0004985 1.82647064 -0.00099701 2.76737976 -0.00151062 C4.68763417 0.00081535 6.60789248 0.01045576 8.52807617 0.02709961 C11.4311116 0.05063446 14.3332217 0.04765551 17.23632812 0.04101562 C45.19661615 0.08152887 45.19661615 0.08152887 53.13671875 7.36328125 C56.26955476 12.31518334 57.25084753 16.75645953 57.3137207 22.53979492 C57.33297356 24.08741768 57.33297356 24.08741768 57.35261536 25.66630554 C57.36000229 26.77673721 57.36738922 27.88716888 57.375 29.03125 C57.38307175 30.18063553 57.39114349 31.33002106 57.39945984 32.51423645 C57.41328761 34.9477081 57.4240156 37.38119905 57.43188477 39.81469727 C57.44907325 43.51942135 57.49297018 47.2232473 57.53710938 50.92773438 C57.54723898 53.29556638 57.55575424 55.66340594 57.5625 58.03125 C57.58000809 59.13156052 57.59751617 60.23187103 57.61555481 61.36552429 C57.59668109 68.1233228 56.75159996 73.54932134 53.13671875 79.36328125 C50.88671875 81.42578125 50.88671875 81.42578125 49.13671875 82.36328125 C46.20772467 77.57038184 46.20772467 77.57038184 45.38671875 75.17578125 C43.36249627 72.24065866 40.47819079 72.10583059 37.13671875 71.36328125 C37.13671875 70.70328125 37.13671875 70.04328125 37.13671875 69.36328125 C35.81671875 69.36328125 34.49671875 69.36328125 33.13671875 69.36328125 C32.35551821 63.24387699 34.06340619 60.35211097 37.7265625 55.4765625 C41.43326381 49.92164446 40.85688003 42.22651929 39.67578125 35.890625 C37.7451882 29.26982649 34.55581768 24.51725905 28.6875 20.8203125 C21.44181163 17.1302829 14.56833339 15.75518117 6.65625 18.09765625 C0.07741826 20.786492 -5.60887014 24.62588052 -9.05078125 31.05078125 C-10.88479046 36.27065362 -11.28602451 41.88693769 -11.86328125 47.36328125 C-12.26675781 46.71101563 -12.67023438 46.05875 -13.0859375 45.38671875 C-14.66339896 43.18679826 -14.66339896 43.18679826 -16.984375 42.90234375 C-18.13099609 42.94488281 -18.13099609 42.94488281 -19.30078125 42.98828125 C-20.06261719 43.00117188 -20.82445312 43.0140625 -21.609375 43.02734375 C-24.04643713 43.39058005 -25.69803691 44.22308036 -27.86328125 45.36328125 C-27.96301977 41.3798782 -28.03515323 37.39697017 -28.08300781 33.41259766 C-28.1127417 31.39980498 -28.16359854 29.38735991 -28.21484375 27.375 C-28.30742749 18.16291793 -27.38814154 12.89524447 -21.67578125 5.55078125 C-15.23547186 0.54165172 -7.9227746 -0.08519413 0 0 Z " fill="#FD06A2" transform="translate(165.86328125,139.63671875)"/>
<path d="M0 0 C0.98484375 0.02707031 1.9696875 0.05414063 2.984375 0.08203125 C3.73203125 0.11683594 4.4796875 0.15164062 5.25 0.1875 C5.49234375 1.05632812 5.7346875 1.92515625 5.984375 2.8203125 C9.09513607 13.5165448 12.44450476 20.24031276 22.375 26 C29.08470245 28.58293855 36.73741452 28.18190647 43.25 25.3125 C44.59424596 24.6251015 45.92843644 23.91755729 47.25 23.1875 C48.58147893 22.51713735 49.91429 21.84939201 51.25 21.1875 C51.25 23.1675 51.25 25.1475 51.25 27.1875 C52.57 27.1875 53.89 27.1875 55.25 27.1875 C55.25 27.8475 55.25 28.5075 55.25 29.1875 C56.301875 29.39375 57.35375 29.6 58.4375 29.8125 C62.94668949 31.09821594 64.74613804 33.27521569 67.25 37.1875 C67.1469574 39.27513123 67.1469574 39.27513123 66.25 41.1875 C59.80356368 44.71531714 52.02466992 44.64226409 44.87109375 44.62109375 C43.81898209 44.6263356 42.76687042 44.63157745 41.68287659 44.63697815 C39.47357053 44.64336121 37.26423032 44.64210997 35.05493164 44.63354492 C31.69290347 44.62501371 28.33256499 44.65388445 24.97070312 44.68554688 C22.8125005 44.68715877 20.6542949 44.68658159 18.49609375 44.68359375 C17.50210068 44.69482773 16.5081076 44.70606171 15.48399353 44.71763611 C7.59498983 44.63957528 1.56445743 42.85347663 -4.625 37.875 C-10.23137134 30.78458919 -10.24298196 24.20364947 -10.1875 15.4375 C-10.2174707 13.73400391 -10.2174707 13.73400391 -10.24804688 11.99609375 C-10.24740234 10.90941406 -10.24675781 9.82273438 -10.24609375 8.703125 C-10.24794678 7.71602539 -10.2497998 6.72892578 -10.25170898 5.71191406 C-9.75 3.1875 -9.75 3.1875 -7.89379883 1.36108398 C-5.11412132 -0.16060031 -3.14815145 -0.11243398 0 0 Z " fill="#FE6510" transform="translate(147.75,181.8125)"/>
<path d="M0 0 C4.41854291 3.11306432 8.02390999 6.75922996 9.75 11.9375 C10.59789212 18.07866147 9.68663331 22.20550408 6.1171875 27.27734375 C3.60109725 30.3325962 1.48165708 31.69361431 -2.25 32.9375 C-7.71470748 33.41852043 -12.60928179 33.65344976 -17.6875 31.4375 C-22.18734833 27.04740407 -25.49232271 22.84478944 -25.8125 16.375 C-25.47167389 11.02310888 -23.52050143 7.17324885 -19.71875 3.4296875 C-13.6341908 -1.78990986 -7.63916665 -2.49741987 0 0 Z " fill="#FE1066" transform="translate(188.25,167.0625)"/>
<path d="M0 0 C1.65 0.33 3.3 0.66 5 1 C4.67 5.95 4.34 10.9 4 16 C3.01 14.68 2.02 13.36 1 12 C-1.13709792 11.44361059 -1.13709792 11.44361059 -3.4375 11.625 C-4.58025391 11.64433594 -4.58025391 11.64433594 -5.74609375 11.6640625 C-8.39750837 11.94002713 -8.39750837 11.94002713 -12 14 C-12 10.04 -12 6.08 -12 2 C-4.07958478 -1.30017301 -4.07958478 -1.30017301 0 0 Z " fill="#FD0E79" transform="translate(150,171)"/>
<path d="M0 0 C3.125 0.375 3.125 0.375 5.5625 2 C7.125 4.375 7.125 4.375 7 7.5 C6.125 10.375 6.125 10.375 4.125 12.375 C-1.85216895 12.918379 -1.85216895 12.918379 -4.875 11.3125 C-6.49147822 8.18057344 -5.66165296 5.70314714 -4.875 2.375 C-2.875 0.375 -2.875 0.375 0 0 Z " fill="#FEEFF9" transform="translate(207.875,148.625)"/>
<path d="M0 0 C0.66 0.33 1.32 0.66 2 1 C1.67 1.33 1.34 1.66 1 2 C0.84193469 3.92478813 0.748865 5.8549921 0.68359375 7.78515625 C0.64169922 8.95498047 0.59980469 10.12480469 0.55664062 11.33007812 C0.51732422 12.56177734 0.47800781 13.79347656 0.4375 15.0625 C0.37272461 16.91584961 0.37272461 16.91584961 0.30664062 18.80664062 C0.20015802 21.87097335 0.09814576 24.93539073 0 28 C-0.99 28 -1.98 28 -3 28 C-5.31896401 24.32908936 -5.39576064 20.65478568 -5.5625 16.4375 C-5.78072406 11.14443193 -5.78072406 11.14443193 -7 6 C-4.69 4.02 -2.38 2.04 0 0 Z " fill="#FE3732" transform="translate(225,225)"/>
<path d="M0 0 C0 1.98 0 3.96 0 6 C1.32 6 2.64 6 4 6 C4 6.66 4 7.32 4 8 C5.051875 8.20625 6.10375 8.4125 7.1875 8.625 C11.69668949 9.91071594 13.49613804 12.08771569 16 16 C15.8125 18.375 15.8125 18.375 15 20 C13.125 19.375 13.125 19.375 11 18 C10.773125 17.030625 10.54625 16.06125 10.3125 15.0625 C9.357042 11.93801641 9.357042 11.93801641 7.16015625 11.046875 C4.79009854 10.28521543 2.40541146 9.64042651 0 9 C-1.52768251 8.45637657 -3.0492663 7.89513543 -4.5625 7.3125 C-6.2640625 6.6628125 -6.2640625 6.6628125 -8 6 C-2.2 0 -2.2 0 0 0 Z " fill="#FE2A30" transform="translate(199,203)"/>
<path d="M0 0 C0.33 1.65 0.66 3.3 1 5 C-1.88828771 6.44414385 -4.53041489 5.97280874 -7.7109375 5.83984375 C-10.25610333 6.01791849 -11.81245757 6.72643078 -14 8 C-14 6.02 -14 4.04 -14 2 C-9.35150485 -0.3992233 -5.08913926 -0.19957409 0 0 Z " fill="#FE0B5E" transform="translate(152,177)"/>
<path d="M0 0 C0.99 0 1.98 0 3 0 C3 7.26 3 14.52 3 22 C2.01 21.34 1.02 20.68 0 20 C-0.35980164 17.45484577 -0.55774045 15.11596063 -0.625 12.5625 C-0.79264031 7.20620126 -0.79264031 7.20620126 -2 2 C-1.34 1.34 -0.68 0.68 0 0 Z " fill="#FE4528" transform="translate(220,229)"/>
</svg>
