<?xml version="1.0" encoding="UTF-8"?>
<svg version="1.1" xmlns="http://www.w3.org/2000/svg" width="354" height="354">
<path d="M0 0 C116.82 0 233.64 0 354 0 C354 116.82 354 233.64 354 354 C237.18 354 120.36 354 0 354 C0 237.18 0 120.36 0 0 Z " fill="#FEFEFE" transform="translate(0,0)"/>
<path d="M0 0 C1.69283576 -0.0032249 3.38567125 -0.00658983 5.07850647 -0.01008606 C8.60402064 -0.01602734 12.12951048 -0.01793103 15.6550293 -0.01733398 C20.13049971 -0.01723234 24.60581158 -0.03090967 29.08124447 -0.04810619 C32.57065014 -0.05932245 36.06001854 -0.06125031 39.54944038 -0.06072426 C41.19774486 -0.06188896 42.8460508 -0.06622361 44.49433708 -0.07405663 C75.03684289 -0.20569763 75.03684289 -0.20569763 83.09765625 6.16796875 C90.23525274 14.80821713 90.25207781 25.4027984 90.265625 36.08203125 C90.2689534 37.01413422 90.2722818 37.94623718 90.27571106 38.90658569 C90.28074987 40.87147533 90.28312033 42.83637344 90.28295898 44.80126953 C90.2851346 47.76349496 90.30329322 50.7253408 90.32226562 53.6875 C90.41571753 84.35825477 90.41571753 84.35825477 83.09765625 92.16796875 C73.3419253 101.77551138 53.78853214 99.47041638 41 99.43359375 C39.31002243 99.43494663 37.62004524 99.43689229 35.93006897 99.43939209 C32.41647577 99.44231332 28.90298539 99.43814324 25.3894043 99.42871094 C20.92966762 99.41730939 16.47017162 99.42389965 12.01044369 99.43585587 C8.52960967 99.44314885 5.04883093 99.44075292 1.56799507 99.43560028 C-0.07472196 99.43428471 -1.71744434 99.43583625 -3.36015511 99.44055939 C-33.96466021 99.50929783 -33.96466021 99.50929783 -41.90234375 92.16796875 C-50.94925098 82.1430175 -49.33871769 66.42611394 -49.23852539 53.89624023 C-49.21492337 50.74111298 -49.21798236 47.58683402 -49.22460938 44.43164062 C-49.18445414 14.26806962 -49.18445414 14.26806962 -41.90234375 6.16796875 C-30.95007998 -2.54913915 -13.36940848 0.00608362 0 0 Z " fill="#ED1E25" transform="translate(155.90234375,127.83203125)"/>
<path d="M0 0 C4.52254758 1.50751586 7.64677083 2.78479053 11.625 5.15234375 C12.66140625 5.76400391 13.6978125 6.37566406 14.765625 7.00585938 C16.36664063 7.96202148 16.36664063 7.96202148 18 8.9375 C20.12399842 10.19830341 22.24896894 11.4574709 24.375 12.71484375 C25.31085938 13.27292725 26.24671875 13.83101074 27.2109375 14.40600586 C30.09086408 16.05193029 33.02044943 17.54345901 36 19 C34.65022901 23.04931297 32.9237312 23.42699972 29.20703125 25.43359375 C28.33155891 25.91240746 28.33155891 25.91240746 27.43840027 26.40089417 C25.56779373 27.42202288 23.69060789 28.43024526 21.8125 29.4375 C19.95355614 30.44341155 18.09613207 31.45201367 16.24015808 32.46339417 C14.54413081 33.38620287 12.84406754 34.3015824 11.14379883 35.21655273 C7.92438683 36.98768905 7.92438683 36.98768905 4.72143555 39.22290039 C2 41 2 41 0 41 C0 27.47 0 13.94 0 0 Z " fill="#FEFAFA" transform="translate(162,157)"/>
</svg>
